<?xml version="1.0" standalone="no"?>
<!DOCTYPE svg PUBLIC "-//W3C//DTD SVG 20010904//EN"
 "http://www.w3.org/TR/2001/REC-SVG-20010904/DTD/svg10.dtd">
<svg version="1.0" xmlns="http://www.w3.org/2000/svg"
 width="512.000000pt" height="512.000000pt" viewBox="0 0 512.000000 512.000000"
 preserveAspectRatio="xMidYMid meet">
<metadata>
Created by potrace 1.14, written by Peter Selinger 2001-2017
</metadata>
<g transform="translate(0.000000,512.000000) scale(0.100000,-0.100000)"
fill="#000000" stroke="none">
<path d="M2369 5116 c-2 -2 -34 -6 -70 -10 -399 -37 -817 -188 -1160 -417
-633 -423 -1044 -1103 -1126 -1864 -10 -93 -9 -463 1 -545 5 -36 10 -74 11
-85 24 -177 106 -472 180 -640 249 -569 671 -1015 1214 -1285 160 -80 351
-151 511 -191 116 -29 130 -32 210 -44 25 -4 56 -9 70 -11 120 -20 472 -26
610 -11 116 13 118 13 239 37 600 114 1158 463 1542 965 47 60 152 219 178
265 149 276 248 538 286 759 3 19 8 37 10 40 3 6 8 37 20 123 21 145 27 484
12 623 -12 103 -24 184 -32 215 -1 3 -5 23 -9 45 -14 71 -58 228 -88 315 -189
534 -520 962 -990 1284 -53 36 -100 66 -104 66 -4 0 -15 6 -23 14 -20 18 -259
138 -331 166 -142 57 -406 135 -493 146 -16 2 -36 6 -46 8 -9 3 -43 8 -76 12
-33 3 -69 8 -80 11 -23 5 -461 13 -466 9z"/>
</g>
</svg>
